# Blender v2.83 (sub 15) OBJ File: 'A3.blend'
# www.blender.org
mtllib mobius.mtl
o Mobius_Strip_BezierCurve.002
v -0.300307 -0.200000 0.041515
v -0.300307 0.200000 0.041515
v -0.437824 -0.199572 0.045269
v -0.434303 0.199572 0.019346
v -0.573160 -0.198289 0.030787
v -0.559300 0.198289 -0.019550
v -0.704842 -0.196157 -0.001428
v -0.674411 0.196157 -0.073286
v -0.831265 -0.193185 -0.050777
v -0.778880 0.193185 -0.140073
v -0.950747 -0.189386 -0.116559
v -0.872026 0.189386 -0.218220
v -1.061557 -0.184776 -0.197986
v -0.953220 0.184776 -0.306127
v -1.161930 -0.179375 -0.294192
v -1.021865 0.179375 -0.402270
v -1.250055 -0.173205 -0.404236
v -1.077411 0.173205 -0.505200
v -1.324068 -0.166294 -0.527080
v -1.119360 0.166294 -0.613566
v -1.382051 -0.158671 -0.661551
v -1.147271 0.158671 -0.726150
v -1.422052 -0.150368 -0.806290
v -1.160733 0.150368 -0.841923
v -1.442149 -0.141421 -0.959645
v -1.159307 0.141421 -0.960146
v -1.440931 -0.131869 -1.115561
v -1.142808 0.131869 -1.076000
v -1.418733 -0.121752 -1.267765
v -1.112450 0.121752 -1.184720
v -1.376506 -0.111114 -1.414186
v -1.069636 0.111114 -1.285945
v -1.315350 -0.100000 -1.552867
v -1.015618 0.100000 -1.379200
v -1.236468 -0.088458 -1.681926
v -0.951547 0.088458 -1.463934
v -1.141122 -0.076537 -1.799545
v -0.878515 0.076537 -1.539533
v -1.030621 -0.064288 -1.903938
v -0.797564 0.064288 -1.605354
v -0.906343 -0.051764 -1.993318
v -0.709672 0.051764 -1.660749
v -0.769768 -0.039018 -2.065886
v -0.615710 0.039018 -1.705086
v -0.622540 -0.026105 -2.119842
v -0.516389 0.026105 -1.737734
v -0.466510 -0.013081 -2.153439
v -0.412211 0.013081 -1.758006
v -0.303829 0.000000 -2.165075
v -0.303378 -0.000000 -1.765075
v -0.140535 0.013081 -2.153768
v -0.193931 -0.013081 -1.758212
v 0.016153 0.026105 -2.120412
v -0.089097 -0.026105 -1.738056
v 0.164073 0.039018 -2.066615
v 0.010899 -0.039018 -1.705439
v 0.301362 0.051764 -1.994119
v 0.105533 -0.051764 -1.661053
v 0.426363 0.064288 -1.904721
v 0.194073 -0.064288 -1.605540
v 0.537578 0.076537 -1.800218
v 0.275631 -0.076537 -1.539541
v 0.633609 0.088458 -1.682392
v 0.349218 -0.088458 -1.463708
v 0.713123 0.100000 -1.553029
v 0.413779 -0.100000 -1.378693
v 0.774834 0.111114 -1.413950
v 0.468213 -0.111114 -1.285114
v 0.817514 0.121752 -1.267041
v 0.511361 -0.121752 -1.183519
v 0.840038 0.131869 -1.114271
v 0.541960 -0.131869 -1.074377
v 0.841435 0.141421 -0.957724
v 0.558593 -0.141421 -0.958043
v 0.821407 0.150368 -0.804451
v 0.560081 -0.150368 -0.840040
v 0.781419 0.158671 -0.659821
v 0.546657 -0.158671 -0.724484
v 0.723410 0.166294 -0.525486
v 0.518759 -0.166294 -0.612106
v 0.649348 0.173205 -0.402805
v 0.476799 -0.173205 -0.503932
v 0.561166 0.179375 -0.292944
v 0.421224 -0.179375 -0.401181
v 0.460740 0.184776 -0.196932
v 0.352538 -0.184776 -0.305208
v 0.349889 0.189386 -0.115704
v 0.271299 -0.189386 -0.217465
v 0.230389 0.193185 -0.050117
v 0.178114 -0.193185 -0.139478
v 0.103973 0.196157 -0.000955
v 0.073626 -0.196157 -0.072848
v -0.027668 0.198289 0.031087
v -0.041474 -0.198289 -0.019265
v -0.162923 0.199572 0.045411
v -0.166418 -0.199572 0.019484
v -0.300309 0.200000 0.041515
v -0.300309 -0.200000 0.041515
vt 0.020833 1.000000
vt 0.000000 0.000000
vt 0.000000 1.000000
vt 0.041667 1.000000
vt 0.020833 0.000000
vt 0.062500 1.000000
vt 0.041667 0.000000
vt 0.083333 1.000000
vt 0.062500 0.000000
vt 0.104167 1.000000
vt 0.083333 0.000000
vt 0.125000 1.000000
vt 0.104167 0.000000
vt 0.145833 1.000000
vt 0.125000 0.000000
vt 0.166667 1.000000
vt 0.145833 0.000000
vt 0.187500 1.000000
vt 0.166667 0.000000
vt 0.208333 1.000000
vt 0.187500 0.000000
vt 0.229167 1.000000
vt 0.208333 0.000000
vt 0.250000 1.000000
vt 0.229167 0.000000
vt 0.270833 1.000000
vt 0.250000 0.000000
vt 0.291667 1.000000
vt 0.270833 0.000000
vt 0.312500 1.000000
vt 0.291667 0.000000
vt 0.333333 1.000000
vt 0.312500 0.000000
vt 0.354167 1.000000
vt 0.333333 0.000000
vt 0.375000 1.000000
vt 0.354167 0.000000
vt 0.395833 1.000000
vt 0.375000 0.000000
vt 0.416667 1.000000
vt 0.395833 0.000000
vt 0.437500 1.000000
vt 0.416667 0.000000
vt 0.458333 1.000000
vt 0.437500 0.000000
vt 0.479167 1.000000
vt 0.458333 0.000000
vt 0.500000 1.000000
vt 0.479167 0.000000
vt 0.520833 0.000000
vt 0.500000 0.000000
vt 0.520833 1.000000
vt 0.541667 0.000000
vt 0.541667 1.000000
vt 0.562500 0.000000
vt 0.562500 1.000000
vt 0.583333 0.000000
vt 0.583333 1.000000
vt 0.604167 0.000000
vt 0.604167 1.000000
vt 0.625000 0.000000
vt 0.625000 1.000000
vt 0.645833 0.000000
vt 0.645833 1.000000
vt 0.666667 0.000000
vt 0.666667 1.000000
vt 0.687500 0.000000
vt 0.687500 1.000000
vt 0.708333 0.000000
vt 0.708333 1.000000
vt 0.729167 0.000000
vt 0.729167 1.000000
vt 0.750000 0.000000
vt 0.750000 1.000000
vt 0.770833 0.000000
vt 0.770833 1.000000
vt 0.791667 0.000000
vt 0.791667 1.000000
vt 0.812500 0.000000
vt 0.812500 1.000000
vt 0.833333 0.000000
vt 0.833333 1.000000
vt 0.854167 0.000000
vt 0.854167 1.000000
vt 0.875000 0.000000
vt 0.875000 1.000000
vt 0.895833 0.000000
vt 0.895833 1.000000
vt 0.916667 0.000000
vt 0.916667 1.000000
vt 0.937500 0.000000
vt 0.937500 1.000000
vt 0.958333 0.000000
vt 0.958333 1.000000
vt 0.979167 0.000000
vt 0.979167 1.000000
vt 1.000000 0.000000
vt 1.000000 1.000000
vn -0.2112 0.0392 0.9767
vn -0.0123 0.0513 0.9986
vn -0.1632 0.0000 0.9866
vn -0.3411 0.1038 0.9343
vn -0.0584 0.0908 0.9941
vn -0.4597 0.1680 0.8720
vn -0.1872 0.1553 0.9699
vn -0.5638 0.2315 0.7927
vn -0.3080 0.2192 0.9257
vn -0.6513 0.2940 0.6995
vn -0.4171 0.2822 0.8639
vn -0.7207 0.3553 0.5952
vn -0.5121 0.3439 0.7870
vn -0.7711 0.4151 0.4828
vn -0.5911 0.4042 0.6979
vn -0.8016 0.4732 0.3653
vn -0.6532 0.4628 0.5993
vn -0.8120 0.5293 0.2459
vn -0.6974 0.5194 0.4938
vn -0.8021 0.5832 0.1285
vn -0.7231 0.5738 0.3844
vn -0.7725 0.6347 0.0170
vn -0.7300 0.6259 0.2744
vn -0.7248 0.6836 -0.0858
vn -0.7183 0.6753 0.1673
vn -0.6608 0.7292 -0.1779
vn -0.6887 0.7218 0.0685
vn -0.5833 0.7715 -0.2541
vn -0.6435 0.7653 -0.0171
vn -0.4965 0.8106 -0.3104
vn -0.5862 0.8054 -0.0876
vn -0.4047 0.8463 -0.3463
vn -0.5202 0.8421 -0.1420
vn -0.3117 0.8786 -0.3618
vn -0.4492 0.8752 -0.1794
vn -0.2211 0.9071 -0.3581
vn -0.3765 0.9046 -0.1997
vn -0.1364 0.9318 -0.3363
vn -0.3053 0.9301 -0.2038
vn -0.0608 0.9526 -0.2980
vn -0.2387 0.9517 -0.1928
vn 0.0026 0.9694 -0.2454
vn -0.1795 0.9693 -0.1681
vn 0.0508 0.9821 -0.1810
vn -0.1302 0.9827 -0.1317
vn 0.0808 0.9908 -0.1082
vn -0.0932 0.9919 -0.0860
vn 0.0670 0.9977 -0.0001
vn -0.0704 0.9969 -0.0335
vn -0.0700 0.9969 0.0337
vn -0.0800 0.9968 0.0001
vn 0.0804 0.9909 0.1078
vn -0.0927 0.9919 0.0863
vn 0.0505 0.9822 0.1806
vn -0.1296 0.9827 0.1322
vn 0.0026 0.9695 0.2451
vn -0.1788 0.9693 0.1688
vn -0.0606 0.9527 0.2978
vn -0.2380 0.9518 0.1936
vn -0.1361 0.9319 0.3362
vn -0.3046 0.9302 0.2049
vn -0.2207 0.9072 0.3582
vn -0.3758 0.9046 0.2010
vn -0.3111 0.8787 0.3621
vn -0.4486 0.8752 0.1807
vn -0.4042 0.8464 0.3467
vn -0.5199 0.8421 0.1433
vn -0.4961 0.8106 0.3109
vn -0.5860 0.8054 0.0888
vn -0.5830 0.7715 0.2545
vn -0.6434 0.7653 0.0181
vn -0.6606 0.7293 0.1781
vn -0.6887 0.7218 -0.0679
vn -0.7248 0.6836 0.0861
vn -0.7183 0.6753 -0.1672
vn -0.7725 0.6347 -0.0167
vn -0.7299 0.6258 -0.2746
vn -0.8021 0.5832 -0.1285
vn -0.7228 0.5738 -0.3850
vn -0.8119 0.5293 -0.2463
vn -0.6969 0.5194 -0.4945
vn -0.8014 0.4732 -0.3659
vn -0.6525 0.4628 -0.6001
vn -0.7706 0.4151 -0.4836
vn -0.5902 0.4042 -0.6987
vn -0.7201 0.3553 -0.5960
vn -0.5110 0.3439 -0.7877
vn -0.6505 0.2940 -0.7002
vn -0.4160 0.2822 -0.8644
vn -0.5629 0.2315 -0.7934
vn -0.3069 0.2192 -0.9261
vn -0.4587 0.1680 -0.8725
vn -0.1861 0.1553 -0.9702
vn -0.3401 0.1038 -0.9346
vn -0.0573 0.0908 -0.9942
vn -0.2103 0.0392 -0.9768
vn -0.0112 0.0513 -0.9986
vn -0.1624 0.0000 -0.9867
usemtl Material.003
s 1
f 4/1/1 1/2/2 2/3/3
f 6/4/4 3/5/5 4/1/1
f 8/6/6 5/7/7 6/4/4
f 10/8/8 7/9/9 8/6/6
f 12/10/10 9/11/11 10/8/8
f 14/12/12 11/13/13 12/10/10
f 16/14/14 13/15/15 14/12/12
f 18/16/16 15/17/17 16/14/14
f 20/18/18 17/19/19 18/16/16
f 22/20/20 19/21/21 20/18/18
f 24/22/22 21/23/23 22/20/20
f 26/24/24 23/25/25 24/22/22
f 28/26/26 25/27/27 26/24/24
f 30/28/28 27/29/29 28/26/26
f 32/30/30 29/31/31 30/28/28
f 34/32/32 31/33/33 32/30/30
f 36/34/34 33/35/35 34/32/32
f 38/36/36 35/37/37 36/34/34
f 40/38/38 37/39/39 38/36/36
f 42/40/40 39/41/41 40/38/38
f 44/42/42 41/43/43 42/40/40
f 46/44/44 43/45/45 44/42/42
f 48/46/46 45/47/47 46/44/44
f 50/48/48 47/49/49 48/46/46
f 50/48/48 51/50/50 49/51/51
f 52/52/52 53/53/53 51/50/50
f 54/54/54 55/55/55 53/53/53
f 56/56/56 57/57/57 55/55/55
f 58/58/58 59/59/59 57/57/57
f 60/60/60 61/61/61 59/59/59
f 62/62/62 63/63/63 61/61/61
f 64/64/64 65/65/65 63/63/63
f 66/66/66 67/67/67 65/65/65
f 68/68/68 69/69/69 67/67/67
f 70/70/70 71/71/71 69/69/69
f 72/72/72 73/73/73 71/71/71
f 74/74/74 75/75/75 73/73/73
f 76/76/76 77/77/77 75/75/75
f 78/78/78 79/79/79 77/77/77
f 80/80/80 81/81/81 79/79/79
f 82/82/82 83/83/83 81/81/81
f 84/84/84 85/85/85 83/83/83
f 86/86/86 87/87/87 85/85/85
f 88/88/88 89/89/89 87/87/87
f 90/90/90 91/91/91 89/89/89
f 92/92/92 93/93/93 91/91/91
f 94/94/94 95/95/95 93/93/93
f 96/96/96 97/97/97 95/95/95
f 4/1/1 3/5/5 1/2/2
f 6/4/4 5/7/7 3/5/5
f 8/6/6 7/9/9 5/7/7
f 10/8/8 9/11/11 7/9/9
f 12/10/10 11/13/13 9/11/11
f 14/12/12 13/15/15 11/13/13
f 16/14/14 15/17/17 13/15/15
f 18/16/16 17/19/19 15/17/17
f 20/18/18 19/21/21 17/19/19
f 22/20/20 21/23/23 19/21/21
f 24/22/22 23/25/25 21/23/23
f 26/24/24 25/27/27 23/25/25
f 28/26/26 27/29/29 25/27/27
f 30/28/28 29/31/31 27/29/29
f 32/30/30 31/33/33 29/31/31
f 34/32/32 33/35/35 31/33/33
f 36/34/34 35/37/37 33/35/35
f 38/36/36 37/39/39 35/37/37
f 40/38/38 39/41/41 37/39/39
f 42/40/40 41/43/43 39/41/41
f 44/42/42 43/45/45 41/43/43
f 46/44/44 45/47/47 43/45/45
f 48/46/46 47/49/49 45/47/47
f 50/48/48 49/51/51 47/49/49
f 50/48/48 52/52/52 51/50/50
f 52/52/52 54/54/54 53/53/53
f 54/54/54 56/56/56 55/55/55
f 56/56/56 58/58/58 57/57/57
f 58/58/58 60/60/60 59/59/59
f 60/60/60 62/62/62 61/61/61
f 62/62/62 64/64/64 63/63/63
f 64/64/64 66/66/66 65/65/65
f 66/66/66 68/68/68 67/67/67
f 68/68/68 70/70/70 69/69/69
f 70/70/70 72/72/72 71/71/71
f 72/72/72 74/74/74 73/73/73
f 74/74/74 76/76/76 75/75/75
f 76/76/76 78/78/78 77/77/77
f 78/78/78 80/80/80 79/79/79
f 80/80/80 82/82/82 81/81/81
f 82/82/82 84/84/84 83/83/83
f 84/84/84 86/86/86 85/85/85
f 86/86/86 88/88/88 87/87/87
f 88/88/88 90/90/90 89/89/89
f 90/90/90 92/92/92 91/91/91
f 92/92/92 94/94/94 93/93/93
f 94/94/94 96/96/96 95/95/95
f 96/96/96 98/98/98 97/97/97
