v 0.350000 -0.000000 0.253982
v 0.248500 -0.248500 0.253982
v 0.249055 -0.249055 0.278592
v 0.350780 -0.000000 0.278592
v 0.266250 -0.266250 0.253982
v 0.375000 -0.000000 0.253982
v 0.000000 -0.350000 0.253982
v 0.000000 -0.350780 0.278592
v 0.000000 -0.375000 0.253982
v -0.256935 -0.248500 0.253982
v -0.250110 -0.249055 0.278592
v -0.266250 -0.266250 0.253982
v -0.350000 -0.000000 0.253982
v -0.350780 -0.000000 0.278592
v -0.375000 -0.000000 0.253982
v -0.248500 0.248500 0.253982
v -0.249055 0.249055 0.278592
v -0.266250 0.266250 0.253982
v 0.000000 0.350000 0.253982
v 0.000000 0.350780 0.278592
v 0.000000 0.375000 0.253982
v 0.248500 0.248500 0.253982
v 0.249055 0.249055 0.278592
v 0.266250 0.266250 0.253982
v 0.327265 -0.327265 0.059452
v 0.460940 -0.000000 0.059452
v 0.355000 -0.355000 -0.121018
v 0.500000 -0.000000 -0.121018
v 0.000000 -0.460940 0.059452
v 0.000000 -0.500000 -0.121018
v -0.327265 -0.327265 0.059452
v -0.355000 -0.355000 -0.121018
v -0.460940 -0.000000 0.059452
v -0.500000 -0.000000 -0.121018
v -0.327265 0.327265 0.059452
v -0.355000 0.355000 -0.121018
v 0.000000 0.460940 0.059452
v 0.000000 0.500000 -0.121018
v 0.327265 0.327265 0.059452
v 0.355000 0.355000 -0.121018
v 0.310625 -0.310625 -0.249923
v 0.437500 -0.000000 -0.249923
v 0.266250 -0.266250 -0.308518
v 0.375000 -0.000000 -0.308518
v 0.000000 -0.437500 -0.249923
v 0.000000 -0.375000 -0.308518
v -0.310625 -0.310625 -0.249923
v -0.266250 -0.266250 -0.308518
v -0.437500 -0.000000 -0.249923
v -0.375000 -0.000000 -0.308518
v -0.310625 0.310625 -0.249923
v -0.266250 0.266250 -0.308518
v 0.000000 0.437500 -0.249923
v 0.000000 0.375000 -0.308518
v 0.310625 0.310625 -0.249923
v 0.266250 0.266250 -0.308518
v 0.227975 -0.227975 -0.334298
v 0.321095 -0.000000 -0.334298
v 0.000000 0.000000 -0.346018
v 0.000000 -0.321095 -0.334298
v -0.227975 -0.227975 -0.334298
v -0.321095 -0.000000 -0.334298
v -0.227975 0.227975 -0.334298
v 0.000000 0.321095 -0.334298
v 0.227975 0.227975 -0.334298
v -0.400000 -0.000000 0.160232
v -0.387500 -0.056250 0.188357
v -0.629690 -0.056250 0.177812
v -0.603125 -0.000000 0.153202
v -0.712500 -0.056250 0.103982
v -0.675000 -0.000000 0.103982
v -0.375000 -0.000000 0.216482
v -0.656250 -0.000000 0.202422
v -0.750000 -0.000000 0.103982
v -0.387500 0.056250 0.188357
v -0.629690 0.056250 0.177812
v -0.712500 0.056250 0.103982
v -0.658595 -0.056250 -0.032543
v -0.634375 -0.000000 -0.008518
v -0.487500 -0.056250 -0.158518
v -0.682815 -0.000000 -0.056563
v -0.475000 -0.000000 -0.196018
v -0.658595 0.056250 -0.032543
v -0.487500 0.056250 -0.158518
v 0.425000 -0.000000 0.010232
v 0.425000 -0.123750 -0.092893
v 0.634375 -0.085310 0.059452
v 0.596875 -0.000000 0.103982
v 0.750000 -0.046875 0.253982
v 0.675000 -0.000000 0.253982
v 0.425000 -0.000000 -0.196018
v 0.671875 -0.000000 0.014917
v 0.825000 -0.000000 0.253982
v 0.425000 0.123750 -0.092893
v 0.634375 0.085310 0.059452
v 0.750000 0.046875 0.253982
v 0.781640 -0.037500 0.270682
v 0.706250 -0.000000 0.268047
v 0.750000 -0.028125 0.253982
v 0.700000 -0.000000 0.253982
v 0.857030 -0.000000 0.273317
v 0.800000 -0.000000 0.253982
v 0.781640 0.037500 0.270682
v 0.750000 0.028125 0.253982
v 0.057760 -0.057760 0.399297
v 0.081250 -0.000000 0.399297
v 0.000000 -0.000000 0.441482
v 0.035500 -0.035500 0.328982
v 0.050000 -0.000000 0.328982
v 0.000000 -0.081250 0.399297
v 0.000000 -0.050000 0.328982
v -0.057760 -0.057760 0.399297
v -0.035500 -0.035500 0.328982
v -0.081250 -0.000000 0.399297
v -0.050000 -0.000000 0.328982
v -0.057760 0.057760 0.399297
v -0.035500 0.035500 0.328982
v 0.000000 0.081250 0.399297
v 0.000000 0.050000 0.328982
v 0.057760 0.057760 0.399297
v 0.035500 0.035500 0.328982
v 0.146440 -0.146440 0.291482
v 0.206250 -0.000000 0.291482
v 0.230750 -0.230750 0.253982
v 0.325000 -0.000000 0.253982
v 0.000000 -0.206250 0.291482
v 0.000000 -0.325000 0.253982
v -0.146440 -0.146440 0.291482
v -0.230750 -0.230750 0.253982
v -0.206250 -0.000000 0.291482
v -0.325000 -0.000000 0.253982
v -0.146440 0.146440 0.291482
v -0.230750 0.230750 0.253982
v 0.000000 0.206250 0.291482
v 0.000000 0.325000 0.253982
v 0.146440 0.146440 0.291482
v 0.230750 0.230750 0.253982

vt 0.421096 0.246744
vt 0.435144 0.288551
vt 0.430549 0.287861
vt 0.129952 0.230888
vt 0.139279 0.187194
vt 0.144787 0.191511
vt 0.435144 0.196275
vt 0.425669 0.247343
vt 0.123534 0.284655
vt 0.123419 0.229290
vt 0.443452 0.382252
vt 0.440287 0.342330
vt 0.448219 0.382880
vt 0.130060 0.282678
vt 0.139245 0.320920
vt 0.435144 0.341098
vt 0.448219 0.291102
vt 0.304771 0.217873
vt 0.248610 0.216760
vt 0.304807 0.212869
vt 0.426780 0.329424
vt 0.430339 0.288925
vt 0.435144 0.288551
vt 0.214947 0.260094
vt 0.252282 0.221694
vt 0.430339 0.381098
vt 0.421957 0.329889
vt 0.209002 0.312481
vt 0.208697 0.257812
vt 0.435144 0.245949
vt 0.448225 0.290678
vt 0.443509 0.290270
vt 0.252239 0.345199
vt 0.215233 0.311232
vt 0.448225 0.195988
vt 0.439840 0.246258
vt 0.304761 0.344902
vt 0.248564 0.348793
vt 0.327948 0.651406
vt 0.252562 0.473083
vt 0.376654 0.522130
vt 0.192695 0.631986
vt 0.141151 0.449072
vt 0.193128 0.840981
vt 0.076681 0.848145
vt 0.076210 0.621440
vt 0.376551 0.932804
vt 0.328301 0.821435
vt 0.340693 0.809924
vt 0.520059 0.975992
vt 0.416607 0.975798
vt 0.367888 0.794924
vt 0.425020 0.585220
vt 0.457368 0.778731
vt 0.513306 0.547495
vt 0.548394 0.757404
vt 0.442690 0.551711
vt 0.486640 0.406583
vt 0.536086 0.455652
vt 0.738643 0.750902
vt 0.892372 0.976999
vt 0.782140 0.940102
vt 0.637782 0.721135
vt 0.782140 0.516433
vt 0.892372 0.517428
vt 0.845188 0.771766
vt 0.584109 0.234736
vt 0.750178 0.451951
vt 0.624193 0.391109
vt 0.700909 0.259740
vt 0.873522 0.483085
vt 0.724131 0.011542
vt 0.845269 0.005356
vt 0.820077 0.274588
vt 0.193408 0.966866
vt 0.031383 0.875378
vt 0.173627 0.877437
vt 0.058912 0.017964
vt 0.124141 0.029205
vt 0.063888 0.029205
vt 0.013001 0.630515
vt 0.178419 0.064272
vt 0.129206 0.017964
vt 0.526905 0.773172
vt 0.598960 0.930611
vt 0.402664 0.144765
vt 0.408591 0.088286
vt 0.417554 0.135773
vt 0.631227 0.728156
vt 0.402664 0.026665
vt 0.392207 0.089363
vt 0.950133 0.771660
vt 0.991419 0.951239
vt 0.406018 0.320232
vt 0.410968 0.267203
vt 0.421096 0.311256
vt 0.406018 0.205143
vt 0.394202 0.268836
vt 0.929231 0.266630
vt 0.975995 0.449065
vt 0.285572 0.186488
vt 0.288830 0.133702
vt 0.299790 0.176459
vt 0.278813 0.072191
vt 0.272785 0.136605
vt 0.119760 0.038876
vt 0.068169 0.038875
vt 0.093610 0.096341
vt 0.166323 0.068898
vt 0.155880 0.072862
vt 0.155878 0.120460
vt 0.123299 0.163405
vt 0.166322 0.124487
vt 0.119040 0.153784
vt 0.067449 0.153784
vt 0.020864 0.123712
vt 0.063047 0.163405
vt 0.031330 0.119797
vt 0.031331 0.072199
vt 0.020865 0.068123
vt 0.094514 0.335595
vt 0.082730 0.377309
vt 0.082730 0.338041
vt 0.094514 0.382417
vt 0.082730 0.391253
vt 0.157613 0.280343
vt 0.144787 0.329646
vt 0.147541 0.284489
vt 0.154510 0.332891
vt 0.147541 0.349268
vt 0.167549 0.329300
vt 0.170303 0.348922
vt 0.158410 0.355990
vt 0.070946 0.335595
vt 0.070946 0.382417
vt 0.231123 0.385201
vt 0.238973 0.402426
vt 0.225010 0.404085
vt 0.101627 0.402369
vt 0.107051 0.376193
vt 0.113428 0.398067
vt 0.094514 0.375268
vt 0.113428 0.342990
vt 0.436790 0.168208
vt 0.417554 0.139987
vt 0.431319 0.140371
vt 0.436790 0.102787
vt 0.438366 0.022438
vt 0.417554 0.049681
vt 0.426583 0.017964
vt 0.438366 0.089201
vt 0.428872 0.096576
vt 0.244535 0.420035
vt 0.232170 0.425146
vt 0.243235 0.374137
vt 0.230536 0.353091
vt 0.243235 0.348793
vt 0.040589 0.416799
vt 0.024336 0.375382
vt 0.038667 0.379581
vt 0.264852 0.385201
vt 0.247634 0.410777
vt 0.244535 0.387155
vt 0.139354 0.383534
vt 0.113664 0.335595
vt 0.131501 0.342871
vt 0.178419 0.394826
vt 0.193356 0.358888
vt 0.193356 0.399682
vt 0.144787 0.267635
vt 0.175385 0.223132
vt 0.175385 0.280343
vt 0.153865 0.177846
vt 0.167320 0.169479
vt 0.058860 0.375382
vt 0.070946 0.423021
vt 0.032257 0.356184
vt 0.043013 0.342412
vt 0.024043 0.342412
vt 0.032062 0.349597
vt 0.173779 0.281690
vt 0.170303 0.289802
vt 0.170905 0.280343
vt 0.178458 0.348793
vt 0.189352 0.353237
vt 0.257768 0.358936
vt 0.248642 0.358872
vt 0.257768 0.351817
vt 0.156371 0.171900
vt 0.167918 0.163405
vt 0.243235 0.354904
vt 0.245038 0.370026
vt 0.040791 0.335595
vt 0.177998 0.195956
vt 0.175385 0.185989
vt 0.177998 0.179682
vt 0.205907 0.362471
vt 0.212091 0.370256
vt 0.193356 0.370256
vt 0.264885 0.393165
vt 0.282758 0.390624
vt 0.280799 0.395514
vt 0.195173 0.355689
vt 0.211092 0.352967
vt 0.213960 0.385201
vt 0.225010 0.389751
vt 0.217465 0.401208
vt 0.284708 0.407134
vt 0.298892 0.396786
vt 0.300087 0.403117
vt 0.202911 0.390015
vt 0.284708 0.385201
vt 0.282758 0.396848
vt 0.198250 0.401171
vt 0.214295 0.370166
vt 0.228225 0.360740
vt 0.229575 0.366614
vt 0.202911 0.412215
vt 0.214295 0.348793
vt 0.212091 0.360627
vt 0.213960 0.416764
vt 0.268069 0.414219
vt 0.280783 0.402903
vt 0.282758 0.408470
vt 0.225010 0.411950
vt 0.264852 0.405178
vt 0.348167 0.391451
vt 0.323123 0.370589
vt 0.348167 0.384098
vt 0.323123 0.400921
vt 0.304807 0.360120
vt 0.345010 0.423199
vt 0.339295 0.443021
vt 0.304807 0.407915
vt 0.360903 0.397206
vt 0.353473 0.396852
vt 0.375662 0.424662
vt 0.397121 0.404026
vt 0.421409 0.412809
vt 0.387595 0.445324
vt 0.366105 0.384851
vt 0.366105 0.392204
vt 0.397122 0.373695
vt 0.375234 0.351416
vt 0.386921 0.329908
vt 0.421409 0.365014
vt 0.353369 0.379095
vt 0.360800 0.379450
vt 0.344582 0.349954
vt 0.338622 0.327605
vt 0.430549 0.195790
vt 0.144787 0.316782
vt 0.443452 0.290678
vt 0.435144 0.380519
vt 0.443509 0.195790
vt 0.304807 0.341559
vt 0.252436 0.977870
vt 0.437711 0.796062
vt 0.341571 0.637492
vt 0.371843 0.524657
vt 0.673171 0.530382
vt 0.603003 0.032812
vt 0.030843 0.964514
vt 0.013413 0.828882
vt 0.600524 0.544486
vt 0.417554 0.034544
vt 0.991419 0.549114
vt 0.421096 0.212609
vt 0.951274 0.031052
vt 0.293996 0.078490
vt 0.094514 0.398501
vt 0.170303 0.284144
vt 0.244535 0.388721
vt 0.104462 0.335595
vt 0.423658 0.173093
vt 0.425206 0.096576
vt 0.430274 0.048992
vt 0.229575 0.372447
vt 0.020864 0.423021
vt 0.264852 0.412309
vt 0.113428 0.383534
vt 0.153883 0.222141
vt 0.025615 0.335595
vt 0.173779 0.295317
vt 0.175385 0.168966
vt 0.178383 0.163405
vt 0.178383 0.179682
vt 0.246868 0.348793
vt 0.175509 0.197073
vt 0.268066 0.385201
vt 0.204493 0.348793
vt 0.300087 0.389620
vt 0.229575 0.353461

vn -0.7067 0.7067 0.0319
vn -0.1417 -0.0000 0.9899
vn -0.9995 -0.0000 0.0317
vn -0.0966 0.0966 0.9906
vn 0.8400 -0.0000 0.5425
vn 0.0023 0.1379 0.9904
vn 0.0001 -0.8395 0.5434
vn 0.5936 -0.5936 0.5435
vn 0.0012 0.9985 0.0541
vn 0.0678 0.2385 0.9688
vn -0.5962 -0.5984 0.5352
vn 0.7018 0.6574 -0.2743
vn 0.1482 -0.0144 0.9889
vn -0.8391 0.0012 0.5439
vn 0.7067 -0.7067 0.0319
vn 0.9943 -0.0201 0.1051
vn 0.0966 -0.0966 0.9906
vn 0.0000 -0.1417 0.9899
vn 0.0000 0.8400 0.5425
vn -0.5936 0.5936 0.5435
vn -0.7067 -0.7067 0.0319
vn 0.0000 -0.9995 0.0317
vn -0.0966 -0.0966 0.9906
vn 0.5936 0.5936 0.5435
vn 0.9532 0.0000 0.3025
vn 0.6738 -0.6738 0.3034
vn 0.9939 0.0000 -0.1105
vn 0.0000 -0.9532 0.3025
vn -0.0000 -0.9939 -0.1105
vn 0.7028 -0.7028 -0.1107
vn -0.6738 -0.6738 0.3034
vn -0.9532 -0.0000 0.3025
vn -0.9939 0.0000 -0.1105
vn -0.7028 -0.7028 -0.1107
vn -0.6738 0.6738 0.3034
vn 0.0000 0.9532 0.3025
vn 0.0000 0.9939 -0.1105
vn -0.7028 0.7028 -0.1107
vn 0.6738 0.6738 0.3034
vn 0.7028 0.7028 -0.1107
vn 0.5792 -0.5792 -0.5735
vn 0.8198 0.0000 -0.5726
vn 0.4157 -0.4157 -0.8089
vn 0.5888 0.0000 -0.8083
vn -0.0000 -0.8198 -0.5726
vn -0.5792 -0.5792 -0.5735
vn -0.4157 -0.4157 -0.8089
vn 0.0000 -0.5888 -0.8083
vn -0.8198 0.0000 -0.5726
vn -0.5792 0.5792 -0.5735
vn -0.4157 0.4157 -0.8089
vn -0.5888 0.0000 -0.8083
vn 0.0000 0.8198 -0.5726
vn 0.5792 0.5792 -0.5735
vn 0.4157 0.4157 -0.8089
vn -0.0000 0.5888 -0.8083
vn 0.2016 -0.2016 -0.9585
vn 0.2850 0.0000 -0.9585
vn 0.0000 0.0000 -1.0000
vn 0.0000 -0.2850 -0.9585
vn -0.2016 -0.2016 -0.9585
vn -0.2850 0.0000 -0.9585
vn -0.2016 0.2016 -0.9585
vn -0.0000 0.2850 -0.9585
vn 0.2016 0.2016 -0.9585
vn -0.0163 -0.9643 0.2642
vn 0.2491 0.0139 -0.9684
vn 0.0335 0.0031 -0.9994
vn 0.0100 -0.9855 0.1692
vn 0.9298 0.0411 -0.3658
vn -0.0450 -0.0014 0.9990
vn -0.4425 -0.0044 0.8967
vn -0.3032 -0.9457 0.1168
vn 0.0063 0.9849 0.1729
vn -0.2694 0.9575 0.1027
vn -0.9863 0.0032 0.1651
vn -0.0157 0.9654 0.2602
vn 0.8289 0.0134 0.5593
vn -0.1115 -0.9910 -0.0737
vn 0.6069 0.0290 0.7942
vn -0.7841 -0.0079 -0.6206
vn -0.3534 -0.7618 -0.5429
vn -0.3230 0.7878 -0.5244
vn -0.5545 -0.0076 -0.8321
vn -0.1021 0.9902 -0.0951
vn -0.4885 0.0072 0.8726
vn 0.2052 -0.9783 0.0282
vn -0.7440 -0.0236 0.6678
vn -0.6974 -0.0564 0.7144
vn 0.3245 -0.9129 -0.2475
vn 0.7848 0.0174 -0.6196
vn -0.0408 -0.9549 0.2940
vn 0.3423 0.9074 -0.2439
vn 0.6475 0.0025 -0.7621
vn 0.0592 0.9453 0.3207
vn 0.6035 0.1005 -0.7910
vn 0.1831 0.9830 -0.0165
vn 0.0307 -0.0671 0.9973
vn 0.3038 0.9495 -0.0791
vn 0.9551 -0.0142 -0.2960
vn 0.2492 -0.6252 0.7396
vn -0.3214 0.0029 0.9469
vn 0.4059 0.5303 0.7443
vn 0.8746 0.1337 0.4661
vn 0.3288 -0.9320 -0.1526
vn 0.6774 -0.6774 0.2870
vn 0.9576 0.0000 0.2882
vn 0.0000 -0.0000 1.0000
vn 0.5956 -0.5951 0.5395
vn 0.8433 -0.0003 0.5374
vn 0.0000 -0.9576 0.2882
vn -0.6774 -0.6774 0.2870
vn -0.5951 -0.5956 0.5395
vn -0.0004 -0.8436 0.5369
vn -0.9576 0.0000 0.2882
vn -0.6774 0.6774 0.2870
vn -0.5956 0.5951 0.5395
vn -0.8436 0.0003 0.5370
vn 0.0000 0.9576 0.2882
vn 0.6774 0.6774 0.2870
vn 0.5951 0.5956 0.5395
vn 0.0004 0.8436 0.5369
vn 0.2754 0.0000 0.9613
vn 0.1942 -0.1942 0.9616
vn 0.3011 -0.0000 0.9536
vn 0.0000 -0.2754 0.9613
vn 0.0000 -0.3011 0.9536
vn 0.2121 -0.2121 0.9539
vn -0.1942 -0.1942 0.9616
vn -0.2754 0.0000 0.9613
vn -0.3011 -0.0000 0.9536
vn -0.2121 -0.2121 0.9539
vn -0.1942 0.1942 0.9616
vn 0.0000 0.2754 0.9613
vn 0.0000 0.3011 0.9536
vn -0.2121 0.2121 0.9539
vn 0.1942 0.1942 0.9616
vn 0.2121 0.2121 0.9539

f 2/1/1 4/2/2 1/3/3
f 3/4/4 6/5/5 4/6/2
f 2/1/1 8/7/6 3/8/4
f 3/4/4 9/9/7 5/10/8
f 7/11/9 11/12/10 8/13/6
f 8/14/6 12/15/11 9/9/7
f 10/16/12 14/17/13 11/12/10
f 11/18/10 15/19/14 12/20/11
f 16/21/15 14/22/13 13/23/16
f 17/24/17 15/19/14 14/25/13
f 16/21/15 20/26/18 17/27/17
f 17/24/17 21/28/19 18/29/20
f 22/30/21 20/31/18 19/32/22
f 23/33/23 21/28/19 20/34/18
f 22/30/21 4/35/2 23/36/23
f 23/33/23 6/37/5 24/38/24
f 5/39/8 26/40/25 6/41/5
f 25/42/26 28/43/27 26/40/25
f 5/39/8 29/44/28 25/42/26
f 25/42/26 30/45/29 27/46/30
f 12/47/11 29/44/28 9/48/7
f 31/49/31 30/50/29 29/51/28
f 12/52/11 33/53/32 31/54/31
f 31/54/31 34/55/33 32/56/34
f 18/57/20 33/58/32 15/59/14
f 35/60/35 34/61/33 33/62/32
f 18/63/20 37/64/36 35/60/35
f 35/60/35 38/65/37 36/66/38
f 24/67/24 37/68/36 21/69/19
f 39/70/39 38/71/37 37/68/36
f 24/67/24 26/72/25 39/70/39
f 39/70/39 28/73/27 40/74/40
f 28/75/27 41/76/41 42/77/42
f 42/78/42 43/79/43 44/80/44
f 30/45/29 41/81/41 27/46/30
f 45/82/45 43/79/43 41/83/41
f 30/50/29 47/84/46 45/85/45
f 45/86/45 48/87/47 46/88/48
f 34/55/33 47/89/46 32/56/34
f 49/90/49 48/87/47 47/91/46
f 34/61/33 51/92/50 49/93/49
f 49/94/49 52/95/51 50/96/52
f 38/65/37 51/92/50 36/66/38
f 53/97/53 52/95/51 51/98/50
f 38/71/37 55/99/54 53/100/53
f 53/101/53 56/102/55 54/103/56
f 28/73/27 55/99/54 40/74/40
f 42/104/42 56/102/55 55/105/54
f 44/80/44 57/106/57 58/107/58
f 58/107/58 57/106/57 59/108/59
f 46/109/48 57/106/57 43/79/43
f 57/106/57 60/110/60 59/108/59
f 46/109/48 61/111/61 60/110/60
f 60/110/60 61/111/61 59/108/59
f 50/112/52 61/111/61 48/113/47
f 61/111/61 62/114/62 59/108/59
f 50/112/52 63/115/63 62/114/62
f 62/114/62 63/115/63 59/108/59
f 54/116/56 63/115/63 52/117/51
f 63/115/63 64/118/64 59/108/59
f 54/116/56 65/119/65 64/118/64
f 64/118/64 65/119/65 59/108/59
f 44/80/44 65/119/65 56/120/55
f 65/119/65 58/107/58 59/108/59
f 67/121/66 69/122/67 66/123/68
f 68/124/69 71/125/70 69/122/67
f 72/126/71 68/127/69 67/128/66
f 73/129/72 70/130/73 68/127/69
f 72/126/71 76/131/74 73/129/72
f 73/129/72 77/132/75 74/133/76
f 75/134/77 69/122/67 76/135/74
f 76/136/74 71/137/70 77/138/75
f 70/139/73 79/140/78 71/141/70
f 78/142/79 34/143/80 79/140/78
f 70/144/73 81/145/81 78/146/79
f 81/145/81 80/147/82 78/146/79
f 77/148/75 81/149/81 74/150/76
f 81/149/81 84/151/83 82/152/84
f 77/138/75 79/153/78 83/154/85
f 83/155/85 34/156/80 84/157/83
f 85/158/86 87/159/87 88/160/88
f 87/161/87 90/162/89 88/163/88
f 86/164/90 92/165/91 87/166/87
f 92/167/91 89/168/92 87/169/87
f 94/170/93 92/171/91 91/172/94
f 92/171/91 96/173/95 93/174/96
f 85/158/86 95/175/97 94/176/93
f 95/175/97 90/177/89 96/178/95
f 89/179/92 98/180/98 90/177/89
f 98/181/98 99/182/99 100/183/100
f 93/184/96 97/185/101 89/168/92
f 97/186/101 102/187/102 99/188/99
f 93/174/96 103/189/103 101/190/104
f 103/191/103 102/187/102 101/192/104
f 96/178/95 98/180/98 103/193/103
f 98/194/98 104/195/105 103/196/103
f 105/197/106 106/198/107 107/199/108
f 106/200/107 108/201/109 109/202/110
f 110/203/111 105/197/106 107/199/108
f 110/203/111 108/204/109 105/197/106
f 112/205/112 110/206/111 107/207/108
f 110/208/111 113/209/113 111/210/114
f 114/211/115 112/205/112 107/207/108
f 114/212/115 113/209/113 112/213/112
f 116/214/116 114/211/115 107/207/108
f 114/215/115 117/216/117 115/217/118
f 118/218/119 116/214/116 107/207/108
f 118/219/119 117/216/117 116/220/116
f 120/221/120 118/218/119 107/207/108
f 118/222/119 121/223/121 119/224/122
f 106/225/107 120/221/120 107/207/108
f 106/200/107 121/223/121 120/226/120
f 108/227/109 123/228/123 109/229/110
f 122/230/124 125/231/125 123/228/123
f 108/227/109 126/232/126 122/230/124
f 122/230/124 127/233/127 124/234/128
f 113/235/113 126/232/126 111/236/114
f 128/237/129 127/233/127 126/232/126
f 113/235/113 130/238/130 128/237/129
f 128/237/129 131/239/131 129/240/132
f 117/241/117 130/238/130 115/242/118
f 132/243/133 131/239/131 130/238/130
f 117/241/117 134/244/134 132/243/133
f 132/243/133 135/245/135 133/246/136
f 121/247/121 134/244/134 119/248/122
f 136/249/137 135/245/135 134/244/134
f 121/247/121 123/228/123 136/249/137
f 136/249/137 125/231/125 137/250/138
f 2/1/1 3/8/4 4/2/2
f 3/4/4 5/10/8 6/5/5
f 2/1/1 7/251/9 8/7/6
f 3/4/4 8/14/6 9/9/7
f 7/11/9 10/16/12 11/12/10
f 8/14/6 11/252/10 12/15/11
f 10/16/12 13/253/16 14/17/13
f 11/18/10 14/25/13 15/19/14
f 16/21/15 17/27/17 14/22/13
f 17/24/17 18/29/20 15/19/14
f 16/21/15 19/254/22 20/26/18
f 17/24/17 20/34/18 21/28/19
f 22/30/21 23/36/23 20/31/18
f 23/33/23 24/38/24 21/28/19
f 22/30/21 1/255/3 4/35/2
f 23/33/23 4/256/2 6/37/5
f 5/39/8 25/42/26 26/40/25
f 25/42/26 27/46/30 28/43/27
f 5/39/8 9/48/7 29/44/28
f 25/42/26 29/44/28 30/45/29
f 12/47/11 31/257/31 29/44/28
f 31/49/31 32/258/34 30/50/29
f 12/52/11 15/259/14 33/53/32
f 31/54/31 33/53/32 34/55/33
f 18/57/20 35/260/35 33/58/32
f 35/60/35 36/66/38 34/61/33
f 18/63/20 21/261/19 37/64/36
f 35/60/35 37/64/36 38/65/37
f 24/67/24 39/70/39 37/68/36
f 39/70/39 40/74/40 38/71/37
f 24/67/24 6/262/5 26/72/25
f 39/70/39 26/72/25 28/73/27
f 28/75/27 27/263/30 41/76/41
f 42/78/42 41/83/41 43/79/43
f 30/45/29 45/264/45 41/81/41
f 45/82/45 46/109/48 43/79/43
f 30/50/29 32/258/34 47/84/46
f 45/86/45 47/91/46 48/87/47
f 34/55/33 49/265/49 47/89/46
f 49/90/49 50/266/52 48/87/47
f 34/61/33 36/66/38 51/92/50
f 49/94/49 51/98/50 52/95/51
f 38/65/37 53/267/53 51/92/50
f 53/97/53 54/268/56 52/95/51
f 38/71/37 40/74/40 55/99/54
f 53/101/53 55/105/54 56/102/55
f 28/73/27 42/269/42 55/99/54
f 42/104/42 44/270/44 56/102/55
f 44/80/44 43/79/43 57/106/57
f 46/109/48 60/110/60 57/106/57
f 46/109/48 48/113/47 61/111/61
f 50/112/52 62/114/62 61/111/61
f 50/112/52 52/117/51 63/115/63
f 54/116/56 64/118/64 63/115/63
f 54/116/56 56/120/55 65/119/65
f 44/80/44 58/107/58 65/119/65
f 67/121/66 68/124/69 69/122/67
f 68/124/69 70/271/73 71/125/70
f 72/126/71 73/129/72 68/127/69
f 73/129/72 74/133/76 70/130/73
f 72/126/71 75/272/77 76/131/74
f 73/129/72 76/131/74 77/132/75
f 75/134/77 66/123/68 69/122/67
f 76/136/74 69/273/67 71/137/70
f 70/139/73 78/142/79 79/140/78
f 78/142/79 80/274/82 34/143/80
f 70/144/73 74/275/76 81/145/81
f 81/145/81 82/276/84 80/147/82
f 77/148/75 83/277/85 81/149/81
f 81/149/81 83/277/85 84/151/83
f 77/138/75 71/137/70 79/153/78
f 83/155/85 79/278/78 34/156/80
f 85/158/86 86/279/90 87/159/87
f 87/161/87 89/280/92 90/162/89
f 86/164/90 91/281/94 92/165/91
f 92/167/91 93/184/96 89/168/92
f 94/170/93 95/282/97 92/171/91
f 92/171/91 95/282/97 96/173/95
f 85/158/86 88/160/88 95/175/97
f 95/175/97 88/160/88 90/177/89
f 89/179/92 97/283/101 98/180/98
f 98/181/98 97/284/101 99/182/99
f 93/285/96 101/286/104 97/287/101
f 97/186/101 101/192/104 102/187/102
f 93/174/96 96/173/95 103/189/103
f 103/191/103 104/288/105 102/187/102
f 96/178/95 90/177/89 98/180/98
f 98/194/98 100/289/100 104/195/105
f 106/200/107 105/290/106 108/201/109
f 110/203/111 111/291/114 108/204/109
f 110/208/111 112/213/112 113/209/113
f 114/212/115 115/292/118 113/209/113
f 114/215/115 116/220/116 117/216/117
f 118/219/119 119/293/122 117/216/117
f 118/222/119 120/226/120 121/223/121
f 106/200/107 109/202/110 121/223/121
f 108/227/109 122/230/124 123/228/123
f 122/230/124 124/234/128 125/231/125
f 108/227/109 111/236/114 126/232/126
f 122/230/124 126/232/126 127/233/127
f 113/235/113 128/237/129 126/232/126
f 128/237/129 129/240/132 127/233/127
f 113/235/113 115/242/118 130/238/130
f 128/237/129 130/238/130 131/239/131
f 117/241/117 132/243/133 130/238/130
f 132/243/133 133/246/136 131/239/131
f 117/241/117 119/248/122 134/244/134
f 132/243/133 134/244/134 135/245/135
f 121/247/121 136/249/137 134/244/134
f 136/249/137 137/250/138 135/245/135
f 121/247/121 109/229/110 123/228/123
f 136/249/137 123/228/123 125/231/125
